<mxfile host="app.diagrams.net" agent="Mozilla/5.0 (Windows NT 10.0; Win64; x64) AppleWebKit/537.36 (KHTML, like Gecko) Chrome/131.0.0.0 Safari/537.36" version="25.0.3">
  <diagram name="Page-1" id="mUnIhKqW9HCyfI-z7ccJ">
    <mxGraphModel dx="3328" dy="772" grid="1" gridSize="10" guides="1" tooltips="1" connect="1" arrows="1" fold="1" page="1" pageScale="1" pageWidth="827" pageHeight="1169" math="0" shadow="0">
      <root>
        <mxCell id="0" />
        <mxCell id="1" parent="0" />
        <mxCell id="TpvSlhSNy0DSCeIX6BtC-1" value="Co-investor Relationships" style="rounded=0;whiteSpace=wrap;html=1;fontSize=21;labelBackgroundColor=default;fontColor=#240066;strokeColor=#ffae00;" parent="1" vertex="1">
          <mxGeometry x="-670" y="90" width="350" height="60" as="geometry" />
        </mxCell>
        <mxCell id="TpvSlhSNy0DSCeIX6BtC-43" style="edgeStyle=orthogonalEdgeStyle;rounded=0;orthogonalLoop=1;jettySize=auto;html=1;exitX=1;exitY=0.5;exitDx=0;exitDy=0;entryX=0;entryY=0.5;entryDx=0;entryDy=0;labelBackgroundColor=default;fontColor=#240066;strokeColor=#ffae00;" parent="1" source="TpvSlhSNy0DSCeIX6BtC-17" target="TpvSlhSNy0DSCeIX6BtC-30" edge="1">
          <mxGeometry relative="1" as="geometry" />
        </mxCell>
        <mxCell id="TpvSlhSNy0DSCeIX6BtC-17" value="STARTUP" style="ellipse;whiteSpace=wrap;html=1;aspect=fixed;labelBackgroundColor=default;fontColor=#240066;strokeColor=#ffae00;" parent="1" vertex="1">
          <mxGeometry x="-380" y="340" width="70" height="70" as="geometry" />
        </mxCell>
        <mxCell id="TpvSlhSNy0DSCeIX6BtC-20" style="edgeStyle=orthogonalEdgeStyle;rounded=0;orthogonalLoop=1;jettySize=auto;html=1;exitX=1;exitY=0.5;exitDx=0;exitDy=0;entryX=0;entryY=0.5;entryDx=0;entryDy=0;labelBackgroundColor=default;fontColor=#240066;strokeColor=#ffae00;" parent="1" source="TpvSlhSNy0DSCeIX6BtC-18" target="TpvSlhSNy0DSCeIX6BtC-17" edge="1">
          <mxGeometry relative="1" as="geometry" />
        </mxCell>
        <mxCell id="TpvSlhSNy0DSCeIX6BtC-18" value="INVESTOR" style="ellipse;whiteSpace=wrap;html=1;aspect=fixed;labelBackgroundColor=default;fontColor=#240066;strokeColor=#ffae00;" parent="1" vertex="1">
          <mxGeometry x="-570" y="340" width="70" height="70" as="geometry" />
        </mxCell>
        <mxCell id="TpvSlhSNy0DSCeIX6BtC-21" value="INVESTOR" style="ellipse;whiteSpace=wrap;html=1;aspect=fixed;labelBackgroundColor=default;fontColor=#240066;strokeColor=#ffae00;" parent="1" vertex="1">
          <mxGeometry x="-570" y="495" width="70" height="70" as="geometry" />
        </mxCell>
        <mxCell id="TpvSlhSNy0DSCeIX6BtC-22" value="INVESTOR" style="ellipse;whiteSpace=wrap;html=1;aspect=fixed;labelBackgroundColor=default;fontColor=#240066;strokeColor=#ffae00;" parent="1" vertex="1">
          <mxGeometry x="-570" y="185" width="70" height="70" as="geometry" />
        </mxCell>
        <mxCell id="TpvSlhSNy0DSCeIX6BtC-25" value="Has:" style="swimlane;fontStyle=0;childLayout=stackLayout;horizontal=1;startSize=30;horizontalStack=0;resizeParent=1;resizeParentMax=0;resizeLast=0;collapsible=1;marginBottom=0;whiteSpace=wrap;html=1;labelBackgroundColor=default;fontColor=#240066;strokeColor=#ffae00;" parent="1" vertex="1">
          <mxGeometry x="-250" y="210" width="130" height="360" as="geometry">
            <mxRectangle x="140" y="370" width="70" height="30" as="alternateBounds" />
          </mxGeometry>
        </mxCell>
        <mxCell id="TpvSlhSNy0DSCeIX6BtC-26" value="org_uuid" style="text;strokeColor=#ffae00;fillColor=none;align=left;verticalAlign=middle;spacingLeft=4;spacingRight=4;overflow=hidden;points=[[0,0.5],[1,0.5]];portConstraint=eastwest;rotatable=0;whiteSpace=wrap;html=1;labelBackgroundColor=default;fontColor=#240066;" parent="TpvSlhSNy0DSCeIX6BtC-25" vertex="1">
          <mxGeometry y="30" width="130" height="30" as="geometry" />
        </mxCell>
        <mxCell id="TpvSlhSNy0DSCeIX6BtC-27" value="founded_year" style="text;strokeColor=#ffae00;fillColor=none;align=left;verticalAlign=middle;spacingLeft=4;spacingRight=4;overflow=hidden;points=[[0,0.5],[1,0.5]];portConstraint=eastwest;rotatable=0;whiteSpace=wrap;html=1;labelBackgroundColor=default;fontColor=#240066;" parent="TpvSlhSNy0DSCeIX6BtC-25" vertex="1">
          <mxGeometry y="60" width="130" height="30" as="geometry" />
        </mxCell>
        <mxCell id="TpvSlhSNy0DSCeIX6BtC-28" value="name" style="text;strokeColor=#ffae00;fillColor=none;align=left;verticalAlign=middle;spacingLeft=4;spacingRight=4;overflow=hidden;points=[[0,0.5],[1,0.5]];portConstraint=eastwest;rotatable=0;whiteSpace=wrap;html=1;labelBackgroundColor=default;fontColor=#240066;" parent="TpvSlhSNy0DSCeIX6BtC-25" vertex="1">
          <mxGeometry y="90" width="130" height="30" as="geometry" />
        </mxCell>
        <mxCell id="TpvSlhSNy0DSCeIX6BtC-29" value="category_list" style="text;strokeColor=#ffae00;fillColor=none;align=left;verticalAlign=middle;spacingLeft=4;spacingRight=4;overflow=hidden;points=[[0,0.5],[1,0.5]];portConstraint=eastwest;rotatable=0;whiteSpace=wrap;html=1;labelBackgroundColor=default;fontColor=#240066;" parent="TpvSlhSNy0DSCeIX6BtC-25" vertex="1">
          <mxGeometry y="120" width="130" height="30" as="geometry" />
        </mxCell>
        <mxCell id="TpvSlhSNy0DSCeIX6BtC-30" value="category_group_list" style="text;strokeColor=#ffae00;fillColor=none;align=left;verticalAlign=middle;spacingLeft=4;spacingRight=4;overflow=hidden;points=[[0,0.5],[1,0.5]];portConstraint=eastwest;rotatable=0;whiteSpace=wrap;html=1;labelBackgroundColor=default;fontColor=#240066;" parent="TpvSlhSNy0DSCeIX6BtC-25" vertex="1">
          <mxGeometry y="150" width="130" height="30" as="geometry" />
        </mxCell>
        <mxCell id="TpvSlhSNy0DSCeIX6BtC-37" value="total_funding_usd" style="text;strokeColor=#ffae00;fillColor=none;align=left;verticalAlign=middle;spacingLeft=4;spacingRight=4;overflow=hidden;points=[[0,0.5],[1,0.5]];portConstraint=eastwest;rotatable=0;whiteSpace=wrap;html=1;labelBackgroundColor=default;fontColor=#240066;" parent="TpvSlhSNy0DSCeIX6BtC-25" vertex="1">
          <mxGeometry y="180" width="130" height="30" as="geometry" />
        </mxCell>
        <mxCell id="TpvSlhSNy0DSCeIX6BtC-38" value="250_mil_success_raised lifetime" style="text;strokeColor=#ffae00;fillColor=none;align=left;verticalAlign=middle;spacingLeft=4;spacingRight=4;overflow=hidden;points=[[0,0.5],[1,0.5]];portConstraint=eastwest;rotatable=0;whiteSpace=wrap;html=1;fontSize=11;labelBackgroundColor=default;fontColor=#240066;" parent="TpvSlhSNy0DSCeIX6BtC-25" vertex="1">
          <mxGeometry y="210" width="130" height="30" as="geometry" />
        </mxCell>
        <mxCell id="TpvSlhSNy0DSCeIX6BtC-39" value="100_mil_success_since 2019" style="text;strokeColor=#ffae00;fillColor=none;align=left;verticalAlign=middle;spacingLeft=4;spacingRight=4;overflow=hidden;points=[[0,0.5],[1,0.5]];portConstraint=eastwest;rotatable=0;whiteSpace=wrap;html=1;fontSize=11;labelBackgroundColor=default;fontColor=#240066;" parent="TpvSlhSNy0DSCeIX6BtC-25" vertex="1">
          <mxGeometry y="240" width="130" height="30" as="geometry" />
        </mxCell>
        <mxCell id="TpvSlhSNy0DSCeIX6BtC-40" value="25_mil_success_since 2022" style="text;strokeColor=#ffae00;fillColor=none;align=left;verticalAlign=middle;spacingLeft=4;spacingRight=4;overflow=hidden;points=[[0,0.5],[1,0.5]];portConstraint=eastwest;rotatable=0;whiteSpace=wrap;html=1;labelBackgroundColor=default;fontColor=#240066;" parent="TpvSlhSNy0DSCeIX6BtC-25" vertex="1">
          <mxGeometry y="270" width="130" height="30" as="geometry" />
        </mxCell>
        <mxCell id="TpvSlhSNy0DSCeIX6BtC-41" value="investor_names" style="text;strokeColor=#ffae00;fillColor=none;align=left;verticalAlign=middle;spacingLeft=4;spacingRight=4;overflow=hidden;points=[[0,0.5],[1,0.5]];portConstraint=eastwest;rotatable=0;whiteSpace=wrap;html=1;labelBackgroundColor=default;fontColor=#240066;" parent="TpvSlhSNy0DSCeIX6BtC-25" vertex="1">
          <mxGeometry y="300" width="130" height="30" as="geometry" />
        </mxCell>
        <mxCell id="TpvSlhSNy0DSCeIX6BtC-42" value="investor_uuids" style="text;strokeColor=#ffae00;fillColor=none;align=left;verticalAlign=middle;spacingLeft=4;spacingRight=4;overflow=hidden;points=[[0,0.5],[1,0.5]];portConstraint=eastwest;rotatable=0;whiteSpace=wrap;html=1;labelBackgroundColor=default;fontColor=#240066;" parent="TpvSlhSNy0DSCeIX6BtC-25" vertex="1">
          <mxGeometry y="330" width="130" height="30" as="geometry" />
        </mxCell>
        <mxCell id="TpvSlhSNy0DSCeIX6BtC-31" value="Has:" style="swimlane;fontStyle=0;childLayout=stackLayout;horizontal=1;startSize=30;horizontalStack=0;resizeParent=1;resizeParentMax=0;resizeLast=0;collapsible=1;marginBottom=0;whiteSpace=wrap;html=1;spacingTop=0;labelBackgroundColor=default;fontColor=#240066;strokeColor=#ffae00;" parent="1" vertex="1">
          <mxGeometry x="-790" y="255" width="150" height="240" as="geometry">
            <mxRectangle x="140" y="370" width="70" height="30" as="alternateBounds" />
          </mxGeometry>
        </mxCell>
        <mxCell id="TpvSlhSNy0DSCeIX6BtC-32" value="investor_uuid" style="text;strokeColor=#ffae00;fillColor=none;align=left;verticalAlign=middle;spacingLeft=4;spacingRight=4;overflow=hidden;points=[[0,0.5],[1,0.5]];portConstraint=eastwest;rotatable=0;whiteSpace=wrap;html=1;spacingTop=0;labelBackgroundColor=default;fontColor=#240066;" parent="TpvSlhSNy0DSCeIX6BtC-31" vertex="1">
          <mxGeometry y="30" width="150" height="30" as="geometry" />
        </mxCell>
        <mxCell id="TpvSlhSNy0DSCeIX6BtC-33" value="investor_name" style="text;strokeColor=#ffae00;fillColor=none;align=left;verticalAlign=middle;spacingLeft=4;spacingRight=4;overflow=hidden;points=[[0,0.5],[1,0.5]];portConstraint=eastwest;rotatable=0;whiteSpace=wrap;html=1;spacingTop=0;labelBackgroundColor=default;fontColor=#240066;" parent="TpvSlhSNy0DSCeIX6BtC-31" vertex="1">
          <mxGeometry y="60" width="150" height="30" as="geometry" />
        </mxCell>
        <mxCell id="TpvSlhSNy0DSCeIX6BtC-34" value="all_seed_startups" style="text;strokeColor=#ffae00;fillColor=none;align=left;verticalAlign=middle;spacingLeft=4;spacingRight=4;overflow=hidden;points=[[0,0.5],[1,0.5]];portConstraint=eastwest;rotatable=0;whiteSpace=wrap;html=1;spacingTop=0;labelBackgroundColor=default;fontColor=#240066;" parent="TpvSlhSNy0DSCeIX6BtC-31" vertex="1">
          <mxGeometry y="90" width="150" height="30" as="geometry" />
        </mxCell>
        <mxCell id="TpvSlhSNy0DSCeIX6BtC-35" value="total_funding_250mil&lt;div&gt;no_ipo_no_acquisition&lt;/div&gt;" style="text;strokeColor=#ffae00;fillColor=none;align=left;verticalAlign=middle;spacingLeft=4;spacingRight=4;overflow=hidden;points=[[0,0.5],[1,0.5]];portConstraint=eastwest;rotatable=0;whiteSpace=wrap;html=1;spacingTop=0;spacingBottom=0;labelBackgroundColor=default;fontColor=#240066;" parent="TpvSlhSNy0DSCeIX6BtC-31" vertex="1">
          <mxGeometry y="120" width="150" height="30" as="geometry" />
        </mxCell>
        <mxCell id="TpvSlhSNy0DSCeIX6BtC-36" value="acquired_over_250m&lt;div&gt;raised_lessthan_100m&lt;/div&gt;" style="text;strokeColor=#ffae00;fillColor=none;align=left;verticalAlign=middle;spacingLeft=4;spacingRight=4;overflow=hidden;points=[[0,0.5],[1,0.5]];portConstraint=eastwest;rotatable=0;whiteSpace=wrap;html=1;spacingTop=0;labelBackgroundColor=default;fontColor=#240066;" parent="TpvSlhSNy0DSCeIX6BtC-31" vertex="1">
          <mxGeometry y="150" width="150" height="30" as="geometry" />
        </mxCell>
        <mxCell id="TpvSlhSNy0DSCeIX6BtC-46" value="ipo_count" style="text;strokeColor=#ffae00;fillColor=none;align=left;verticalAlign=middle;spacingLeft=4;spacingRight=4;overflow=hidden;points=[[0,0.5],[1,0.5]];portConstraint=eastwest;rotatable=0;whiteSpace=wrap;html=1;spacingTop=0;labelBackgroundColor=default;fontColor=#240066;" parent="TpvSlhSNy0DSCeIX6BtC-31" vertex="1">
          <mxGeometry y="180" width="150" height="30" as="geometry" />
        </mxCell>
        <mxCell id="TpvSlhSNy0DSCeIX6BtC-47" value="success_rate" style="text;strokeColor=#ffae00;fillColor=none;align=left;verticalAlign=middle;spacingLeft=4;spacingRight=4;overflow=hidden;points=[[0,0.5],[1,0.5]];portConstraint=eastwest;rotatable=0;whiteSpace=wrap;html=1;spacingTop=0;labelBackgroundColor=default;fontColor=#240066;" parent="TpvSlhSNy0DSCeIX6BtC-31" vertex="1">
          <mxGeometry y="210" width="150" height="30" as="geometry" />
        </mxCell>
        <mxCell id="TpvSlhSNy0DSCeIX6BtC-44" value="" style="endArrow=classic;html=1;rounded=0;exitX=1;exitY=0.5;exitDx=0;exitDy=0;entryX=0;entryY=0;entryDx=0;entryDy=0;labelBackgroundColor=default;fontColor=#240066;strokeColor=#ffae00;" parent="1" source="TpvSlhSNy0DSCeIX6BtC-22" target="TpvSlhSNy0DSCeIX6BtC-17" edge="1">
          <mxGeometry width="50" height="50" relative="1" as="geometry">
            <mxPoint x="-590" y="610" as="sourcePoint" />
            <mxPoint x="-540" y="560" as="targetPoint" />
          </mxGeometry>
        </mxCell>
        <mxCell id="TpvSlhSNy0DSCeIX6BtC-45" value="" style="endArrow=classic;html=1;rounded=0;exitX=1;exitY=0.5;exitDx=0;exitDy=0;entryX=0;entryY=1;entryDx=0;entryDy=0;labelBackgroundColor=default;fontColor=#240066;strokeColor=#ffae00;" parent="1" source="TpvSlhSNy0DSCeIX6BtC-21" target="TpvSlhSNy0DSCeIX6BtC-17" edge="1">
          <mxGeometry width="50" height="50" relative="1" as="geometry">
            <mxPoint x="-590" y="610" as="sourcePoint" />
            <mxPoint x="-540" y="560" as="targetPoint" />
          </mxGeometry>
        </mxCell>
        <mxCell id="TpvSlhSNy0DSCeIX6BtC-48" value="" style="endArrow=classic;html=1;rounded=0;exitX=0;exitY=0.5;exitDx=0;exitDy=0;entryX=1;entryY=0.5;entryDx=0;entryDy=0;labelBackgroundColor=default;fontColor=#240066;strokeColor=#ffae00;" parent="1" source="TpvSlhSNy0DSCeIX6BtC-22" target="TpvSlhSNy0DSCeIX6BtC-33" edge="1">
          <mxGeometry width="50" height="50" relative="1" as="geometry">
            <mxPoint x="-370" y="530" as="sourcePoint" />
            <mxPoint x="-320" y="480" as="targetPoint" />
          </mxGeometry>
        </mxCell>
        <mxCell id="TpvSlhSNy0DSCeIX6BtC-49" value="" style="endArrow=classic;html=1;rounded=0;exitX=0;exitY=0.5;exitDx=0;exitDy=0;entryX=0.989;entryY=-0.002;entryDx=0;entryDy=0;entryPerimeter=0;labelBackgroundColor=default;fontColor=#240066;strokeColor=#ffae00;" parent="1" source="TpvSlhSNy0DSCeIX6BtC-18" target="TpvSlhSNy0DSCeIX6BtC-35" edge="1">
          <mxGeometry width="50" height="50" relative="1" as="geometry">
            <mxPoint x="-430" y="530" as="sourcePoint" />
            <mxPoint x="-640" y="376" as="targetPoint" />
          </mxGeometry>
        </mxCell>
        <mxCell id="TpvSlhSNy0DSCeIX6BtC-50" value="" style="endArrow=classic;html=1;rounded=0;exitX=0;exitY=0.5;exitDx=0;exitDy=0;entryX=1;entryY=0.5;entryDx=0;entryDy=0;labelBackgroundColor=default;fontColor=#240066;strokeColor=#ffae00;" parent="1" source="TpvSlhSNy0DSCeIX6BtC-21" target="TpvSlhSNy0DSCeIX6BtC-36" edge="1">
          <mxGeometry width="50" height="50" relative="1" as="geometry">
            <mxPoint x="-370" y="530" as="sourcePoint" />
            <mxPoint x="-320" y="480" as="targetPoint" />
          </mxGeometry>
        </mxCell>
        <mxCell id="TpvSlhSNy0DSCeIX6BtC-54" value="WANT:" style="rounded=0;whiteSpace=wrap;html=1;fontSize=13;" parent="1" vertex="1">
          <mxGeometry x="-555" y="650" width="210" height="50" as="geometry" />
        </mxCell>
        <mxCell id="TpvSlhSNy0DSCeIX6BtC-55" value="INPUTS (startup data)" style="swimlane;fontStyle=0;childLayout=stackLayout;horizontal=1;startSize=30;horizontalStack=0;resizeParent=1;resizeParentMax=0;resizeLast=0;collapsible=1;marginBottom=0;whiteSpace=wrap;html=1;fontSize=13;" parent="1" vertex="1">
          <mxGeometry x="-695" y="740" width="140" height="150" as="geometry" />
        </mxCell>
        <mxCell id="TpvSlhSNy0DSCeIX6BtC-56" value="founded_year" style="text;strokeColor=none;fillColor=none;align=left;verticalAlign=middle;spacingLeft=4;spacingRight=4;overflow=hidden;points=[[0,0.5],[1,0.5]];portConstraint=eastwest;rotatable=0;whiteSpace=wrap;html=1;fontSize=13;" parent="TpvSlhSNy0DSCeIX6BtC-55" vertex="1">
          <mxGeometry y="30" width="140" height="30" as="geometry" />
        </mxCell>
        <mxCell id="TpvSlhSNy0DSCeIX6BtC-57" value="category_list" style="text;strokeColor=none;fillColor=none;align=left;verticalAlign=middle;spacingLeft=4;spacingRight=4;overflow=hidden;points=[[0,0.5],[1,0.5]];portConstraint=eastwest;rotatable=0;whiteSpace=wrap;html=1;fontSize=13;" parent="TpvSlhSNy0DSCeIX6BtC-55" vertex="1">
          <mxGeometry y="60" width="140" height="30" as="geometry" />
        </mxCell>
        <mxCell id="TpvSlhSNy0DSCeIX6BtC-58" value="category_groups_list" style="text;strokeColor=none;fillColor=none;align=left;verticalAlign=middle;spacingLeft=4;spacingRight=4;overflow=hidden;points=[[0,0.5],[1,0.5]];portConstraint=eastwest;rotatable=0;whiteSpace=wrap;html=1;fontSize=13;" parent="TpvSlhSNy0DSCeIX6BtC-55" vertex="1">
          <mxGeometry y="90" width="140" height="30" as="geometry" />
        </mxCell>
        <mxCell id="TpvSlhSNy0DSCeIX6BtC-59" value="investor_uuids" style="text;strokeColor=none;fillColor=none;align=left;verticalAlign=middle;spacingLeft=4;spacingRight=4;overflow=hidden;points=[[0,0.5],[1,0.5]];portConstraint=eastwest;rotatable=0;whiteSpace=wrap;html=1;fontSize=13;" parent="TpvSlhSNy0DSCeIX6BtC-55" vertex="1">
          <mxGeometry y="120" width="140" height="30" as="geometry" />
        </mxCell>
        <mxCell id="TpvSlhSNy0DSCeIX6BtC-60" value="" style="shape=flexArrow;endArrow=classic;html=1;rounded=0;exitX=1;exitY=0.5;exitDx=0;exitDy=0;entryX=0;entryY=0;entryDx=0;entryDy=0;entryPerimeter=0;fontSize=13;" parent="1" source="TpvSlhSNy0DSCeIX6BtC-57" target="TpvSlhSNy0DSCeIX6BtC-63" edge="1">
          <mxGeometry width="50" height="50" relative="1" as="geometry">
            <mxPoint x="-505" y="780" as="sourcePoint" />
            <mxPoint x="-365" y="810" as="targetPoint" />
          </mxGeometry>
        </mxCell>
        <mxCell id="TpvSlhSNy0DSCeIX6BtC-61" value="OUPUTS (success probability)" style="swimlane;fontStyle=0;childLayout=stackLayout;horizontal=1;startSize=30;horizontalStack=0;resizeParent=1;resizeParentMax=0;resizeLast=0;collapsible=1;marginBottom=0;whiteSpace=wrap;html=1;fontSize=13;" parent="1" vertex="1">
          <mxGeometry x="-355" y="725" width="285" height="180" as="geometry" />
        </mxCell>
        <mxCell id="TpvSlhSNy0DSCeIX6BtC-62" value="L1-L5 persona (by individual success)" style="text;strokeColor=none;fillColor=none;align=left;verticalAlign=middle;spacingLeft=4;spacingRight=4;overflow=hidden;points=[[0,0.5],[1,0.5]];portConstraint=eastwest;rotatable=0;whiteSpace=wrap;html=1;fontSize=13;" parent="TpvSlhSNy0DSCeIX6BtC-61" vertex="1">
          <mxGeometry y="30" width="285" height="30" as="geometry" />
        </mxCell>
        <mxCell id="TpvSlhSNy0DSCeIX6BtC-66" value="Recent graduation rate" style="text;strokeColor=none;fillColor=none;align=left;verticalAlign=middle;spacingLeft=4;spacingRight=4;overflow=hidden;points=[[0,0.5],[1,0.5]];portConstraint=eastwest;rotatable=0;whiteSpace=wrap;html=1;fontSize=13;" parent="TpvSlhSNy0DSCeIX6BtC-61" vertex="1">
          <mxGeometry y="60" width="285" height="30" as="geometry" />
        </mxCell>
        <mxCell id="TpvSlhSNy0DSCeIX6BtC-63" value="Specialisation/generalisation persona bucket" style="text;strokeColor=none;fillColor=none;align=left;verticalAlign=middle;spacingLeft=4;spacingRight=4;overflow=hidden;points=[[0,0.5],[1,0.5]];portConstraint=eastwest;rotatable=0;whiteSpace=wrap;html=1;fontSize=13;" parent="TpvSlhSNy0DSCeIX6BtC-61" vertex="1">
          <mxGeometry y="90" width="285" height="30" as="geometry" />
        </mxCell>
        <mxCell id="TpvSlhSNy0DSCeIX6BtC-64" value="Outlier rate (probability of investment success)" style="text;strokeColor=none;fillColor=none;align=left;verticalAlign=middle;spacingLeft=4;spacingRight=4;overflow=hidden;points=[[0,0.5],[1,0.5]];portConstraint=eastwest;rotatable=0;whiteSpace=wrap;html=1;fontSize=13;" parent="TpvSlhSNy0DSCeIX6BtC-61" vertex="1">
          <mxGeometry y="120" width="285" height="30" as="geometry" />
        </mxCell>
        <mxCell id="TpvSlhSNy0DSCeIX6BtC-65" value="Co-investor outlier rate" style="text;strokeColor=none;fillColor=none;align=left;verticalAlign=middle;spacingLeft=4;spacingRight=4;overflow=hidden;points=[[0,0.5],[1,0.5]];portConstraint=eastwest;rotatable=0;whiteSpace=wrap;html=1;fontSize=13;" parent="TpvSlhSNy0DSCeIX6BtC-61" vertex="1">
          <mxGeometry y="150" width="285" height="30" as="geometry" />
        </mxCell>
        <mxCell id="TpvSlhSNy0DSCeIX6BtC-67" value="" style="shape=flexArrow;endArrow=classic;startArrow=classic;html=1;rounded=0;exitX=1;exitY=0;exitDx=0;exitDy=0;entryX=1;entryY=1;entryDx=0;entryDy=0;fillColor=#d5e8d4;strokeColor=#82b366;" parent="1" source="TpvSlhSNy0DSCeIX6BtC-21" target="TpvSlhSNy0DSCeIX6BtC-22" edge="1">
          <mxGeometry width="100" height="100" relative="1" as="geometry">
            <mxPoint x="-380" y="440" as="sourcePoint" />
            <mxPoint x="-280" y="340" as="targetPoint" />
            <Array as="points">
              <mxPoint x="-470" y="370" />
            </Array>
          </mxGeometry>
        </mxCell>
        <mxCell id="TpvSlhSNy0DSCeIX6BtC-68" value="" style="shape=flexArrow;endArrow=classic;startArrow=classic;html=1;rounded=0;exitX=0.5;exitY=1;exitDx=0;exitDy=0;entryX=0.5;entryY=0;entryDx=0;entryDy=0;fillColor=#d5e8d4;strokeColor=#82b366;" parent="1" source="TpvSlhSNy0DSCeIX6BtC-18" target="TpvSlhSNy0DSCeIX6BtC-21" edge="1">
          <mxGeometry width="100" height="100" relative="1" as="geometry">
            <mxPoint x="-380" y="440" as="sourcePoint" />
            <mxPoint x="-280" y="340" as="targetPoint" />
          </mxGeometry>
        </mxCell>
        <mxCell id="TpvSlhSNy0DSCeIX6BtC-69" value="" style="shape=flexArrow;endArrow=classic;startArrow=classic;html=1;rounded=0;entryX=0.5;entryY=1;entryDx=0;entryDy=0;exitX=0.5;exitY=0;exitDx=0;exitDy=0;fillColor=#d5e8d4;strokeColor=#82b366;" parent="1" source="TpvSlhSNy0DSCeIX6BtC-18" target="TpvSlhSNy0DSCeIX6BtC-22" edge="1">
          <mxGeometry width="100" height="100" relative="1" as="geometry">
            <mxPoint x="-530" y="460" as="sourcePoint" />
            <mxPoint x="-430" y="360" as="targetPoint" />
          </mxGeometry>
        </mxCell>
        <mxCell id="TpvSlhSNy0DSCeIX6BtC-70" value="Investor 1" style="ellipse;whiteSpace=wrap;html=1;aspect=fixed;" parent="1" vertex="1">
          <mxGeometry x="-1330" y="415" width="80" height="80" as="geometry" />
        </mxCell>
        <mxCell id="TpvSlhSNy0DSCeIX6BtC-71" value="Investor 3" style="ellipse;whiteSpace=wrap;html=1;aspect=fixed;" parent="1" vertex="1">
          <mxGeometry x="-1330" y="590" width="80" height="80" as="geometry" />
        </mxCell>
        <mxCell id="TpvSlhSNy0DSCeIX6BtC-72" value="Investor 2" style="ellipse;whiteSpace=wrap;html=1;aspect=fixed;" parent="1" vertex="1">
          <mxGeometry x="-1110" y="415" width="80" height="80" as="geometry" />
        </mxCell>
        <mxCell id="TpvSlhSNy0DSCeIX6BtC-73" value="Investor 4" style="ellipse;whiteSpace=wrap;html=1;aspect=fixed;" parent="1" vertex="1">
          <mxGeometry x="-1110" y="590" width="80" height="80" as="geometry" />
        </mxCell>
        <mxCell id="TpvSlhSNy0DSCeIX6BtC-74" value="" style="endArrow=classic;startArrow=classic;html=1;rounded=0;exitX=1;exitY=0.5;exitDx=0;exitDy=0;entryX=0;entryY=0.5;entryDx=0;entryDy=0;" parent="1" source="TpvSlhSNy0DSCeIX6BtC-70" target="TpvSlhSNy0DSCeIX6BtC-72" edge="1">
          <mxGeometry width="50" height="50" relative="1" as="geometry">
            <mxPoint x="-940" y="610" as="sourcePoint" />
            <mxPoint x="-890" y="560" as="targetPoint" />
          </mxGeometry>
        </mxCell>
        <mxCell id="TpvSlhSNy0DSCeIX6BtC-89" value="S1" style="edgeLabel;html=1;align=center;verticalAlign=middle;resizable=0;points=[];fontSize=14;fontStyle=1;fontColor=#000099;" parent="TpvSlhSNy0DSCeIX6BtC-74" vertex="1" connectable="0">
          <mxGeometry x="0.0361" y="-1" relative="1" as="geometry">
            <mxPoint as="offset" />
          </mxGeometry>
        </mxCell>
        <mxCell id="TpvSlhSNy0DSCeIX6BtC-77" value="" style="endArrow=classic;startArrow=classic;html=1;rounded=0;exitX=1;exitY=1;exitDx=0;exitDy=0;entryX=0;entryY=0;entryDx=0;entryDy=0;" parent="1" source="TpvSlhSNy0DSCeIX6BtC-70" target="TpvSlhSNy0DSCeIX6BtC-73" edge="1">
          <mxGeometry width="50" height="50" relative="1" as="geometry">
            <mxPoint x="-1240" y="465" as="sourcePoint" />
            <mxPoint x="-1100" y="465" as="targetPoint" />
          </mxGeometry>
        </mxCell>
        <mxCell id="TpvSlhSNy0DSCeIX6BtC-94" value="&lt;font color=&quot;#000099&quot; style=&quot;font-size: 14px;&quot;&gt;&lt;b&gt;S4&lt;/b&gt;&lt;/font&gt;" style="edgeLabel;html=1;align=center;verticalAlign=middle;resizable=0;points=[];" parent="TpvSlhSNy0DSCeIX6BtC-77" vertex="1" connectable="0">
          <mxGeometry x="-0.4035" y="-2" relative="1" as="geometry">
            <mxPoint x="34" y="25" as="offset" />
          </mxGeometry>
        </mxCell>
        <mxCell id="TpvSlhSNy0DSCeIX6BtC-79" value="" style="endArrow=classic;startArrow=classic;html=1;rounded=0;exitX=0.5;exitY=0;exitDx=0;exitDy=0;entryX=0.5;entryY=1;entryDx=0;entryDy=0;" parent="1" source="TpvSlhSNy0DSCeIX6BtC-73" target="TpvSlhSNy0DSCeIX6BtC-72" edge="1">
          <mxGeometry width="50" height="50" relative="1" as="geometry">
            <mxPoint x="-1220" y="485" as="sourcePoint" />
            <mxPoint x="-1080" y="485" as="targetPoint" />
          </mxGeometry>
        </mxCell>
        <mxCell id="TpvSlhSNy0DSCeIX6BtC-80" value="" style="endArrow=classic;startArrow=classic;html=1;rounded=0;exitX=1;exitY=0.5;exitDx=0;exitDy=0;entryX=0;entryY=0.5;entryDx=0;entryDy=0;" parent="1" source="TpvSlhSNy0DSCeIX6BtC-71" target="TpvSlhSNy0DSCeIX6BtC-73" edge="1">
          <mxGeometry width="50" height="50" relative="1" as="geometry">
            <mxPoint x="-1210" y="495" as="sourcePoint" />
            <mxPoint x="-1070" y="495" as="targetPoint" />
          </mxGeometry>
        </mxCell>
        <mxCell id="TpvSlhSNy0DSCeIX6BtC-92" value="&lt;font color=&quot;#000099&quot; style=&quot;font-size: 14px;&quot;&gt;&lt;b&gt;S4&lt;/b&gt;&lt;/font&gt;" style="edgeLabel;html=1;align=center;verticalAlign=middle;resizable=0;points=[];" parent="TpvSlhSNy0DSCeIX6BtC-80" vertex="1" connectable="0">
          <mxGeometry x="-0.0311" y="-2" relative="1" as="geometry">
            <mxPoint as="offset" />
          </mxGeometry>
        </mxCell>
        <mxCell id="TpvSlhSNy0DSCeIX6BtC-81" value="" style="endArrow=classic;startArrow=classic;html=1;rounded=0;exitX=0.5;exitY=1;exitDx=0;exitDy=0;entryX=0.5;entryY=0;entryDx=0;entryDy=0;" parent="1" source="TpvSlhSNy0DSCeIX6BtC-70" target="TpvSlhSNy0DSCeIX6BtC-71" edge="1">
          <mxGeometry width="50" height="50" relative="1" as="geometry">
            <mxPoint x="-1200" y="505" as="sourcePoint" />
            <mxPoint x="-1060" y="505" as="targetPoint" />
          </mxGeometry>
        </mxCell>
        <mxCell id="TpvSlhSNy0DSCeIX6BtC-93" value="&lt;font color=&quot;#000099&quot;&gt;&lt;span style=&quot;font-size: 14px;&quot;&gt;&lt;b&gt;S2, S4&lt;/b&gt;&lt;/span&gt;&lt;/font&gt;" style="edgeLabel;html=1;align=center;verticalAlign=middle;resizable=0;points=[];" parent="TpvSlhSNy0DSCeIX6BtC-81" vertex="1" connectable="0">
          <mxGeometry x="-0.0291" y="1" relative="1" as="geometry">
            <mxPoint x="-1" y="-1" as="offset" />
          </mxGeometry>
        </mxCell>
        <mxCell id="TpvSlhSNy0DSCeIX6BtC-83" value="&lt;b&gt;&lt;font style=&quot;font-size: 13px;&quot;&gt;Investor 1&lt;/font&gt;&lt;/b&gt;&lt;div&gt;- Startup 1&lt;/div&gt;&lt;div&gt;- Startup 2&lt;/div&gt;&lt;div&gt;- Startup 4&lt;/div&gt;" style="rounded=0;whiteSpace=wrap;html=1;" parent="1" vertex="1">
          <mxGeometry x="-1450" y="315" width="120" height="80" as="geometry" />
        </mxCell>
        <mxCell id="TpvSlhSNy0DSCeIX6BtC-84" value="&lt;b&gt;&lt;font style=&quot;font-size: 13px;&quot;&gt;Investor 2&lt;/font&gt;&lt;/b&gt;&lt;div&gt;- Startup 1&lt;/div&gt;&lt;div&gt;- Startup 3&lt;/div&gt;&lt;div&gt;- Startup 5&lt;/div&gt;" style="rounded=0;whiteSpace=wrap;html=1;" parent="1" vertex="1">
          <mxGeometry x="-1310" y="315" width="120" height="80" as="geometry" />
        </mxCell>
        <mxCell id="TpvSlhSNy0DSCeIX6BtC-85" value="&lt;b&gt;&lt;font style=&quot;font-size: 13px;&quot;&gt;Investor 3&lt;/font&gt;&lt;/b&gt;&lt;div&gt;- Startup 2&lt;/div&gt;&lt;div&gt;- Startup 4&lt;/div&gt;" style="rounded=0;whiteSpace=wrap;html=1;" parent="1" vertex="1">
          <mxGeometry x="-1170" y="315" width="120" height="80" as="geometry" />
        </mxCell>
        <mxCell id="TpvSlhSNy0DSCeIX6BtC-86" value="&lt;b&gt;&lt;font style=&quot;font-size: 13px;&quot;&gt;Investor 4&lt;/font&gt;&lt;/b&gt;&lt;div&gt;- Startup 4&lt;/div&gt;&lt;div&gt;- Startup 5&lt;/div&gt;" style="rounded=0;whiteSpace=wrap;html=1;" parent="1" vertex="1">
          <mxGeometry x="-1030" y="315" width="120" height="80" as="geometry" />
        </mxCell>
        <mxCell id="TpvSlhSNy0DSCeIX6BtC-91" value="S5" style="edgeLabel;html=1;align=center;verticalAlign=middle;resizable=0;points=[];fontSize=14;fontStyle=1;fontColor=#000099;" parent="1" vertex="1" connectable="0">
          <mxGeometry x="-1069.9988235294122" y="544.9999999999998" as="geometry">
            <mxPoint x="2" y="-8" as="offset" />
          </mxGeometry>
        </mxCell>
        <mxCell id="TpvSlhSNy0DSCeIX6BtC-96" value="&lt;font style=&quot;font-size: 15px;&quot;&gt;Current idea for developing a graph-based algorithm&lt;/font&gt;" style="whiteSpace=wrap;html=1;" parent="1" vertex="1">
          <mxGeometry x="-1300" y="210" width="220" height="80" as="geometry" />
        </mxCell>
        <mxCell id="TpvSlhSNy0DSCeIX6BtC-97" value="" style="curved=1;endArrow=classic;html=1;rounded=0;exitX=0.378;exitY=1.019;exitDx=0;exitDy=0;exitPerimeter=0;" parent="1" source="TpvSlhSNy0DSCeIX6BtC-65" edge="1">
          <mxGeometry width="50" height="50" relative="1" as="geometry">
            <mxPoint x="-810" y="570" as="sourcePoint" />
            <mxPoint x="-1060" y="240" as="targetPoint" />
            <Array as="points">
              <mxPoint x="-930" y="1020" />
              <mxPoint x="-890" y="710" />
              <mxPoint x="-860" y="520" />
              <mxPoint x="-900" y="240" />
            </Array>
          </mxGeometry>
        </mxCell>
      </root>
    </mxGraphModel>
  </diagram>
</mxfile>
